<?xml version="1.0" encoding="UTF-8"?>
<svg width="160px" height="160px" viewBox="0 0 160 160" version="1.1" xmlns="http://www.w3.org/2000/svg" xmlns:xlink="http://www.w3.org/1999/xlink">
    <!-- Generator: Sketch 47.1 (45422) - http://www.bohemiancoding.com/sketch -->
    <title>api-160</title>
    <desc>Created with Sketch.</desc>
    <defs></defs>
    <g id="Page-1" stroke="none" stroke-width="1" fill="none" fill-rule="evenodd">
        <g id="api-160">
            <g id="Group-11">
                <rect id="Rectangle-18" x="0" y="0" width="160" height="160"></rect>
                <g id="API-Copy" transform="translate(4.000000, 25.000000)">
                    <g id="Group-14">
                        <path d="M121,20 L6,20 L6,86.6166888 C6,90.5878003 6.23352957,91.7971157 6.89367541,93.0314811 C7.38031917,93.9414258 8.05857422,94.6196808 8.96851893,95.1063246 C10.2028843,95.7664704 11.4121997,96 15.3833112,96 L111.616689,96 C115.5878,96 116.797116,95.7664704 118.031481,95.1063246 C118.941426,94.6196808 119.619681,93.9414258 120.106325,93.0314811 C120.436273,92.4145304 120.659648,91.8038375 120.800558,90.8514394 C121.853825,90.949742 122.921043,91 124,91 C124.951065,91 125.89301,90.9609503 126.824318,90.8843669 C126.584281,93.2338844 126.101643,94.5438866 125.397204,95.8610742 C124.351361,97.8166298 122.81663,99.3513612 120.861074,100.397204 C118.905519,101.443046 116.965801,102 111.616689,102 L15.3833112,102 C10.0341988,102 8.09448133,101.443046 6.13892578,100.397204 C4.18337022,99.3513612 2.64863878,97.8166298 1.60279622,95.8610742 C0.556953667,93.9055187 0,91.9658012 0,86.6166888 L0,6 C0,2.6862915 2.6862915,0 6,0 L121,0 C124.313708,0 127,2.6862915 127,6 L127,23.1305358 C126.011518,23.0441187 125.010911,23 124,23 C122.989089,23 121.988482,23.0441187 121,23.1305358 L121,20 Z M11,14 C13.209139,14 15,12.209139 15,10 C15,7.790861 13.209139,6 11,6 C8.790861,6 7,7.790861 7,10 C7,12.209139 8.790861,14 11,14 Z M23,14 C25.209139,14 27,12.209139 27,10 C27,7.790861 25.209139,6 23,6 C20.790861,6 19,7.790861 19,10 C19,12.209139 20.790861,14 23,14 Z M35,14 C37.209139,14 39,12.209139 39,10 C39,7.790861 37.209139,6 35,6 C32.790861,6 31,7.790861 31,10 C31,12.209139 32.790861,14 35,14 Z" id="Combined-Shape" fill-opacity="0.4" fill="#202532" fill-rule="nonzero"></path>
                        <path d="M36.984375,70 L30.7265625,70 L38.3203125,46.0058594 L46.1074219,46.0058594 L53.6484375,70 L46.9335938,70 L45.5449219,64.796875 L38.390625,64.796875 L36.984375,70 Z M42.1523438,51.4902344 L41.8535156,51.4902344 L39.515625,60.2792969 L44.4550781,60.2792969 L42.1523438,51.4902344 Z M56.0039062,46.0058594 L66.4101562,46.0058594 C72.0878906,46.0058594 74.9355469,49.9433594 74.9355469,54.4960938 C74.9355469,59.1191406 72.0351562,62.8632812 66.3222656,62.8632812 L62.296875,62.8632812 L62.296875,70 L56.0039062,70 L56.0039062,46.0058594 Z M62.2617187,50.7695312 L62.2617187,58.2050781 L64.3886719,58.2050781 C66.9550781,58.2050781 68.5722656,57.0976562 68.5722656,54.4960938 C68.5722656,52.0703125 67.1308594,50.7695312 64.8457031,50.7695312 L62.2617187,50.7695312 Z M84.1464844,70 L84.1464844,46.0058594 L77.8359375,46.0058594 L77.8359375,70 L84.1464844,70 Z" id="API" fill-opacity="0.4" fill="#202532"></path>
                        <path d="M124,52 C121.238576,52 119,54.2385763 119,57 C119,59.7614237 121.238576,62 124,62 C126.761424,62 129,59.7614237 129,57 C129,54.2385763 126.761424,52 124,52 Z M124,68 C117.924868,68 113,63.0751322 113,57 C113,50.9248678 117.924868,46 124,46 C130.075132,46 135,50.9248678 135,57 C135,63.0751322 130.075132,68 124,68 Z" id="Oval" fill="#202532" fill-rule="nonzero"></path>
                        <path d="M118.032152,79.2181818 C115.851707,78.6339759 113.79906,77.737339 111.925132,76.5791912 L104.73433,79.9973125 C103.005583,78.5475473 101.442705,76.9064637 100.078279,75.1066464 L103.616207,67.6638019 C102.731056,65.9753134 102.049551,64.1632844 101.604319,62.2603412 L94.1107167,59.5955117 C94.03741,58.7400875 94,57.8744125 94,57 C94,55.4060809 94.1243046,53.8411947 94.3637484,52.3145067 L102.246694,49.5112213 C102.740886,48.0754086 103.373229,46.703888 104.127842,45.4125383 L100.669978,38.1381279 C102.312088,36.109548 104.213418,34.2994159 106.32357,32.7581271 L113.869902,36.3452479 C114.9484,35.8152992 116.074462,35.3673337 117.239959,35.00948 L119.993956,27.2651485 C121.304438,27.0902736 122.641677,27 124,27 C125.358323,27 126.695562,27.0902736 128.006044,27.2651485 L130.760035,35.0094782 C131.925538,35.3673336 133.051599,35.8152988 134.130097,36.3452472 L141.676425,32.7581239 C143.786582,34.2994159 145.687912,36.109548 147.330022,38.1381279 L143.872158,45.4125383 C144.626771,46.703888 145.259114,48.0754086 145.753306,49.5112213 L153.636252,52.3145067 C153.875695,53.8411947 154,55.4060809 154,57 C154,57.8744125 153.96259,58.7400875 153.889283,59.5955117 L146.395681,62.2603412 C145.950449,64.1632844 145.268944,65.9753134 144.383793,67.6638019 L147.921721,75.1066464 C146.557295,76.9064637 144.994417,78.5475473 143.26567,79.9973125 L136.074868,76.5791912 C134.20094,77.737339 132.148293,78.6339759 129.967848,79.2181818 L127.262898,86.8246064 C126.191179,86.9405243 125.102535,87 124,87 C122.897465,87 121.808821,86.9405243 120.737102,86.8246064 L118.032152,79.2181818 Z M124,73 C132.836556,73 140,65.836556 140,57 C140,48.163444 132.836556,41 124,41 C115.163444,41 108,48.163444 108,57 C108,65.836556 115.163444,73 124,73 Z" id="Combined-Shape" fill="#4A9DFF"></path>
                    </g>
                </g>
            </g>
        </g>
    </g>
</svg>