<?xml version="1.0" encoding="UTF-8"?>
<svg width="160px" height="160px" viewBox="0 0 160 160" version="1.1" xmlns="http://www.w3.org/2000/svg" xmlns:xlink="http://www.w3.org/1999/xlink">
    <!-- Generator: Sketch 47.1 (45422) - http://www.bohemiancoding.com/sketch -->
    <title>branch-160</title>
    <desc>Created with Sketch.</desc>
    <defs></defs>
    <g id="Page-1" stroke="none" stroke-width="1" fill="none" fill-rule="evenodd">
        <g id="branch-160">
            <rect id="Rectangle-18" x="0" y="0" width="160" height="160"></rect>
            <path d="M107.6,43.301676 C99.6125,43.301676 93.2,49.6703911 93.2,57.603352 C93.2,62.8547486 96.125,67.4357542 100.4,69.8938547 L100.4,71.9050279 C100.4,79.0558659 93.2,86.2067039 86,86.2067039 C80.0375,86.2067039 75.3125,87.4357542 71.6,89.4469274 L71.6,55.5921788 C75.875,53.1340782 78.8,48.5530726 78.8,43.301676 C78.8,35.3687151 72.3875,29 64.4,29 C56.4125,29 50,35.3687151 50,43.301676 C50,48.5530726 52.925,53.1340782 57.2,55.5921788 L57.2,102.407821 C52.925,104.865922 50,109.446927 50,114.698324 C50,122.631285 56.4125,129 64.4,129 C72.3875,129 78.8,122.631285 78.8,114.698324 C78.8,110.899441 77.3375,107.547486 74.975,104.977654 C77.1125,102.407821 80.4875,100.396648 86,100.396648 C100.4,100.396648 114.8,86.0949721 114.8,71.7932961 L114.8,69.7821229 C119.075,67.3240223 122,62.7430168 122,57.4916201 C122,49.5586592 115.5875,43.1899441 107.6,43.1899441 L107.6,43.301676 Z M64.4,36.150838 C68.3375,36.150838 71.6,39.3910615 71.6,43.301676 C71.6,47.2122905 68.3375,50.452514 64.4,50.452514 C60.4625,50.452514 57.2,47.2122905 57.2,43.301676 C57.2,39.3910615 60.4625,36.150838 64.4,36.150838 Z M64.4,121.960894 C60.4625,121.960894 57.2,118.72067 57.2,114.810056 C57.2,110.899441 60.4625,107.659218 64.4,107.659218 C68.3375,107.659218 71.6,110.899441 71.6,114.810056 C71.6,118.72067 68.3375,121.960894 64.4,121.960894 Z M107.6,64.7541899 C103.6625,64.7541899 100.4,61.5139665 100.4,57.603352 C100.4,53.6927374 103.6625,50.452514 107.6,50.452514 C111.5375,50.452514 114.8,53.6927374 114.8,57.603352 C114.8,61.5139665 111.5375,64.7541899 107.6,64.7541899 Z" id="Shape" fill="#202532" fill-rule="nonzero"></path>
        </g>
    </g>
</svg>