<?xml version="1.0" encoding="UTF-8"?>
<svg width="140px" height="140px" viewBox="0 0 140 140" version="1.1" xmlns="http://www.w3.org/2000/svg" xmlns:xlink="http://www.w3.org/1999/xlink">
    <!-- Generator: Sketch 47.1 (45422) - http://www.bohemiancoding.com/sketch -->
    <title>micromdm-docs</title>
    <desc>Created with Sketch.</desc>
    <defs>
        <filter x="-19.8%" y="-14.2%" width="139.6%" height="132.5%" filterUnits="objectBoundingBox" id="filter-1">
            <feOffset dx="0" dy="2" in="SourceAlpha" result="shadowOffsetOuter1"></feOffset>
            <feGaussianBlur stdDeviation="6" in="shadowOffsetOuter1" result="shadowBlurOuter1"></feGaussianBlur>
            <feColorMatrix values="0 0 0 0 0.125490196   0 0 0 0 0.145098039   0 0 0 0 0.196078431  0 0 0 0.14 0" type="matrix" in="shadowBlurOuter1" result="shadowMatrixOuter1"></feColorMatrix>
            <feMerge>
                <feMergeNode in="shadowMatrixOuter1"></feMergeNode>
                <feMergeNode in="SourceGraphic"></feMergeNode>
            </feMerge>
        </filter>
    </defs>
    <g id="Page-1" stroke="none" stroke-width="1" fill="none" fill-rule="evenodd">
        <g id="micromdm-docs">
            <g id="micro-mdm-140">
                <rect id="Rectangle-18" x="0" y="0" width="140" height="140"></rect>
                <g id="micromdm-docs" filter="url(#filter-1)" transform="translate(22.000000, 6.000000)">
                    <g id="Page-1">
                        <path d="M87.7714286,2.75862069 C87.7714286,1.23586207 86.5426286,0 85.0285714,0 C80.5275429,0 74.0571429,8.27586207 48,8.27586207 L15.0857143,8.27586207 L9.6,8.27586207 C4.29805714,8.27586207 0,12.5986207 0,17.9310345 L0,105.558621 L0,108.965517 C0,110.168276 0.770742857,111.18069 1.83908571,111.558621 C1.92548571,111.590345 2.01325714,111.62069 2.10651429,111.641379 C2.31222857,111.692414 2.52205714,111.724138 2.74285714,111.724138 C3.34217143,111.724138 3.89074286,111.525517 4.34194286,111.198621 C6.40868571,110.088276 9.44777143,107.586207 16.4571429,107.586207 L49.5126857,107.586207 C57.7412571,107.586207 87.7714286,104.670345 87.7714286,97.2551724 L87.7714286,6.89655172 L87.7714286,2.75862069 Z" id="Fill-1" fill="#80CFFF"></path>
                        <path d="M0,16.8353103 C0,15.7511724 0.312685714,14.6918621 0.898285714,13.7925517 C0.898285714,13.7925517 2.66742857,16.5511724 7.99954286,16.5511724 L93.3339429,16.5511724 C94.8068571,16.5511724 96,17.7870345 96,19.3097931 L96,117.240828 C96,118.764966 94.8068571,119.999448 93.3339429,119.999448 L6.66377143,119.999448 C2.98285714,119.999448 0,116.913931 0,113.105655 L0,16.8353103 Z" id="Fill-3" fill="#FFFFFF"></path>
                        <g id="Group-3" transform="translate(22.000000, 25.000000)">
                            <polygon id="Triangle" fill="#366BE0" points="34 38 0 20 34 2.27373675e-13"></polygon>
                            <polygon id="Triangle" fill="#4A9DFF" transform="translate(34.000000, 29.000000) rotate(-180.000000) translate(-34.000000, -29.000000) " points="51 48 17 30 51 10"></polygon>
                            <polygon id="Path-3" fill="#80CFFF" points="17 29 0 39 17 48"></polygon>
                            <polygon id="Path-3" fill="#80CFFF" points="51 28 34 38 51 47"></polygon>
                        </g>
                    </g>
                    <rect id="Rectangle-3" fill="#80CFFF" x="21" y="84" width="55" height="7" rx="2"></rect>
                    <rect id="Rectangle-3" fill="#80CFFF" x="21" y="100" width="41" height="7" rx="2"></rect>
                </g>
            </g>
        </g>
    </g>
</svg>