<?xml version="1.0" encoding="UTF-8"?>
<svg width="160px" height="160px" viewBox="0 0 160 160" version="1.1" xmlns="http://www.w3.org/2000/svg" xmlns:xlink="http://www.w3.org/1999/xlink">
    <!-- Generator: Sketch 47.1 (45422) - http://www.bohemiancoding.com/sketch -->
    <title>octocat-160</title>
    <desc>Created with Sketch.</desc>
    <defs></defs>
    <g id="Page-1" stroke="none" stroke-width="1" fill="none" fill-rule="evenodd">
        <g id="octocat-160">
            <g id="Group-15">
                <rect id="Rectangle-18" x="0" y="0" width="160" height="160"></rect>
                <g id="octocat-svg" transform="translate(7.000000, 11.000000)" fill-rule="nonzero">
                    <path d="M116,115.50078 C116,123.50897 97.4192516,130 74.5019534,130 C51.5807484,130 33,123.50897 33,115.50078 C33,107.49259 51.5799671,101 74.5019534,101 C97.4192516,101 116,107.49376 116,115.50078 Z" id="puddle" fill="#9CDAF1"></path>
                    <g id="shadow-legs" transform="translate(50.000000, 110.000000)" fill="#7DBBE6">
                        <path d="M12.86625,19.288 L12.86625,8.688 C12.86625,7.3192 12.6238083,6.1744 12.218825,5.2076 C14.9029167,7.3364 15.0842583,12.6856 15.0842583,12.6856 L15.0842583,19.4872 C17.499275,19.6796 19.9934083,19.7964 22.5466833,19.8316 L22.4793167,13.0636 C22.1095833,3.8116 14.3447917,2.6792 14.3447917,2.6792 C11.5071667,2.0212 11.5494667,3.4756 11.8346,4.4152 C9.05063333,-0.4336 1.58938333,0.1928 1.58938333,0.1928 C-0.999925,1.1356 1.40334167,2.8356 1.40334167,2.8356 C5.47158333,4.3456 5.840925,8.8776 5.840925,8.8776 L5.840925,18.3264 C8.08125833,18.7184 10.4273417,19.0424 12.867425,19.2864 L12.86625,19.288 Z" id="Shape"></path>
                        <path d="M45.59,0.192 C45.59,0.192 38.127575,-0.4344 35.344,4.4156 C35.6291333,3.4756 35.6726083,2.02 32.8342,2.6784 C32.8342,2.6784 25.0698,3.8112 24.7000667,13.0628 L24.6319167,19.8412 C27.181275,19.8312 29.6750167,19.7396 32.0947333,19.5728 L32.0947333,12.6852 C32.0947333,12.6852 32.2768583,7.336 34.9601667,5.2072 C34.5551833,6.174 34.3127417,7.3184 34.3127417,8.6876 L34.3127417,19.3976 C36.7465583,19.18 39.0953833,18.886 41.3380667,18.5224 L41.3380667,8.8772 C41.3380667,8.8772 41.7078,4.3452 45.77565,2.8352 C45.77565,2.8312 48.1765667,1.1312 45.58765,0.1872 L45.59,0.192 Z" id="Shape"></path>
                    </g>
                    <path d="M147.890502,55.2884127 L148,54.7450124 C135.81361,52.3073401 123.307719,52.2826934 115.742161,52.5972318 C116.984968,48.1174074 117.358827,42.9627338 117.358827,37.2145843 C117.358827,28.9704711 114.262759,22.375337 109.236391,17.356807 C110.114725,14.5204846 111.287922,8.22150174 108.064758,0.157739529 C108.064758,0.157739529 102.378272,-1.64850878 89.5161196,6.96334827 C84.4776287,5.70362994 79.1153353,5.08159511 73.7452207,5.08159511 C67.8366085,5.08159511 61.866208,5.83429637 56.297823,7.36238948 C43.025052,-1.69584602 37.1657141,0.159695613 37.1657141,0.159695613 C33.3410912,9.72768671 35.7058657,16.8122331 36.4242535,18.5715354 C31.9289529,23.4249719 29.1844536,29.6206735 29.1844536,37.2165404 C29.1844536,42.9509973 29.8371423,48.0954992 31.4311262,52.5667169 C23.8010427,52.2889529 11.7515253,52.3957551 0,54.7465773 L0.107934142,55.2899775 C11.9302423,52.9246803 24.0556265,52.8425248 31.6391732,53.1296779 C31.9903502,54.0552971 32.381807,54.9531398 32.8205827,55.8208588 C25.3211152,56.0626308 12.5156677,57.0187649 0.243633952,60.4822079 L0.394976391,61.0142628 C12.7639945,57.5253907 25.6805046,56.5931209 33.1072339,56.3658239 C37.5880651,64.7214339 46.42224,70.1178795 62.1383897,71.812631 C59.9077508,73.3121653 57.6321393,75.8613344 56.7100063,80.1745005 C53.6702523,81.6290448 44.0476889,85.1793379 38.2743855,75.2455591 C38.2743855,75.2455591 35.0426182,69.3346633 28.8567405,68.8718537 C28.8567405,68.8718537 22.8562279,68.7799178 28.4426019,72.6126695 C28.4426019,72.6126695 32.4576737,74.5053767 35.2279834,81.6180907 C35.2279834,81.6180907 38.8418218,93.749726 56.2810072,89.8575093 L56.2810072,102.388968 C56.2810072,102.388968 55.9122322,106.821455 51.8502324,108.298299 C51.8502324,108.298299 49.450262,109.96058 52.0359886,110.882678 C52.0359886,110.882678 63.2955532,111.806341 63.2955532,102.574014 L63.2955532,88.9091996 C63.2955532,88.9091996 62.8489561,83.4900635 65.5101585,81.6063542 L65.5101585,104.050858 C65.5101585,104.050858 65.3263576,109.405834 62.5572211,111.437423 C62.5572211,111.437423 60.7102176,114.760419 64.7718264,113.838321 C64.7718264,113.838321 72.5243135,112.730395 72.8938706,103.68194 L73.0694591,80.9678883 L74.9328873,80.9678883 L75.1100401,103.68194 C75.4788151,112.730395 83.2316932,113.838321 83.2316932,113.838321 C87.2921287,114.760419 85.4462985,111.437423 85.4462985,111.437423 C82.6775531,109.405834 82.4933611,104.050858 82.4933611,104.050858 L82.4933611,81.8000066 C85.1529992,83.8718911 84.7079664,88.9088084 84.7079664,88.9088084 L84.7079664,102.573623 C84.7079664,111.806341 95.967922,110.882287 95.967922,110.882287 C98.5513023,109.960188 96.1532872,108.297908 96.1532872,108.297908 C92.0916785,106.821064 91.7225124,102.388577 91.7225124,102.388577 L91.7225124,84.4763212 C91.7225124,77.4915351 88.7824803,73.7925796 85.907365,71.8400162 C102.668051,70.1773445 110.7111,64.7632941 114.41723,56.3513489 C121.758707,56.5532168 134.970472,57.4479298 147.608152,61.0142628 L147.758321,60.4822079 C135.192988,56.9366093 122.068431,56.0192058 114.652652,55.8032541 C115.003829,54.953531 115.310424,54.0697721 115.582606,53.1605841 C123.110621,52.8476106 135.675563,52.8515227 147.9081,55.2966282 L147.890502,55.2884127 Z" id="cat" fill="#000000"></path>
                    <path d="M101.291995,37.256122 C104.893293,40.5125134 107,44.4448698 107,48.681722 C107,68.4638227 92.2249636,69 74.0007803,69 C55.7734758,69 41,66.2607063 41,48.681722 C41,44.4729052 43.0770568,40.5650798 46.6338799,37.3219274 C52.5669902,31.9169329 62.6081786,34.7788816 74.0003901,34.7788816 C85.3414946,34.777324 95.3483514,31.8861718 101.290045,37.2541751 L101.291995,37.256122 Z" id="face" fill="#F4CBB2"></path>
                    <path d="M62.5771041,49.498875 C62.5771041,54.746694 59.5376842,59 55.788552,59 C52.0394199,59 49,54.746694 49,49.498875 C49,44.2518059 52.0394199,40 55.788552,40 C59.5376842,40.00375 62.5771041,44.252556 62.5771041,49.498875 L62.5771041,49.498875 Z M99,49.498875 C99,54.746694 95.9605801,59 92.211448,59 C88.4623158,59 85.4228959,54.746694 85.4228959,49.498875 C85.4228959,44.2518059 88.4623158,40 92.211448,40 C95.9605801,40.00375 99,44.252556 99,49.498875 L99,49.498875 Z" id="eyes" fill="#FFFFFF"></path>
                    <g id="Group" transform="translate(51.000000, 43.000000)" fill="#AD5C51">
                        <path d="M9.45512605,6.89206897 C9.45512605,10.5911034 7.42184874,13.5886379 4.91929412,13.5886379 C2.4167395,13.5886379 0.383848739,10.5911034 0.383848739,6.89206897 C0.383848739,3.19184483 2.41519328,0.192724138 4.91929412,0.192724138 C7.42030252,0.192724138 9.45357983,3.19065517 9.45357983,6.89048276 L9.45512605,6.89206897 Z M45.9536134,6.89206897 C45.9536134,10.5911034 43.9203361,13.5886379 41.4177815,13.5886379 C38.9152269,13.5886379 36.8823361,10.5911034 36.8823361,6.89206897 C36.8823361,3.19184483 38.9136807,0.192724138 41.4177815,0.192724138 C43.9187899,0.192724138 45.9520672,3.19065517 45.9520672,6.89048276 L45.9536134,6.89206897 Z" id="pupils"></path>
                        <ellipse id="nose" cx="21.6134454" cy="15.6875862" rx="1.70122689" ry="1.74522414"></ellipse>
                        <path d="M17.6435294,20.1012069 C17.5430252,19.8085517 17.6930084,19.4885345 17.9763529,19.385431 C18.2612437,19.2823276 18.5739664,19.4361897 18.674084,19.7268621 C19.112437,20.9950345 20.2848571,21.8468276 21.592958,21.8468276 C22.9010588,21.8468276 24.073479,20.995431 24.5118319,19.7268621 C24.6123361,19.4342069 24.9242857,19.2823276 25.209563,19.385431 C25.4948403,19.4885345 25.6428908,19.8085517 25.5427731,20.1012069 C24.9517311,21.8158966 23.3629916,22.9678793 21.592958,22.9678793 C19.8229244,22.9678793 18.2376639,21.8218448 17.6462353,20.1047759 L17.6435294,20.1012069 Z" id="mouth"></path>
                    </g>
                    <path d="M31.3962414,70.8343576 C31.3962414,71.2948822 30.8592336,71.6667538 30.1981207,71.6667538 C29.5373981,71.6667538 29,71.2948822 29,70.8343576 C29,70.3734407 29.5373981,70 30.1981207,70 C30.8592336,70 31.3962414,70.3726562 31.3962414,70.8355344 L31.3962414,70.8343576 Z M34.7135138,72.6858704 C34.7135138,73.146395 34.1765059,73.5182667 33.515393,73.5182667 C32.8546704,73.5182667 32.3172723,73.146395 32.3172723,72.6858704 C32.3172723,72.2249536 32.8546704,71.8515129 33.515393,71.8515129 C34.1765059,71.8515129 34.7135138,72.224169 34.7135138,72.6870473 L34.7135138,72.6858704 Z M36.740172,75.0944062 C36.740172,75.5549308 36.2031642,75.9268025 35.5420513,75.9268025 C34.8813287,75.9268025 34.3439306,75.5549308 34.3439306,75.0944062 C34.3439306,74.6334894 34.8813287,74.2600486 35.5420513,74.2600486 C36.2031642,74.2600486 36.740172,74.6327048 36.740172,75.095583 L36.740172,75.0944062 Z M38.5822338,77.8716755 C38.5822338,78.3322001 38.045226,78.7040718 37.3841131,78.7040718 C36.7233905,78.7040718 36.1859924,78.3322001 36.1859924,77.8716755 C36.1859924,77.4107586 36.7233905,77.0373179 37.3841131,77.0373179 C38.045226,77.0373179 38.5822338,77.4099741 38.5822338,77.8728523 L38.5822338,77.8716755 Z M40.6069408,80.464578 C40.6069408,80.9251026 40.0699329,81.2969743 39.40882,81.2969743 C38.7480974,81.2969743 38.2106993,80.9251026 38.2106993,80.464578 C38.2106993,80.0036612 38.7480974,79.6302205 39.40882,79.6302205 C40.0699329,79.6302205 40.6069408,80.0028766 40.6069408,80.4657549 L40.6069408,80.464578 Z M43.3739361,82.6848244 C43.3739361,83.145349 42.8369283,83.5172206 42.1758154,83.5172206 C41.5150928,83.5172206 40.9776947,83.145349 40.9776947,82.6848244 C40.9776947,82.2239075 41.5150928,81.8504668 42.1758154,81.8504668 C42.8369283,81.8504668 43.3739361,82.223123 43.3739361,82.6860012 L43.3739361,82.6848244 Z M47.2414854,84.1676038 C47.2414854,84.6281284 46.7044776,85 46.0433647,85 C45.3826421,85 44.845244,84.6281284 44.845244,84.1676038 C44.845244,83.7066869 45.3826421,83.3332462 46.0433647,83.3332462 C46.7044776,83.3332462 47.2414854,83.7059024 47.2414854,84.1687806 L47.2414854,84.1676038 Z M51.093424,84.1676038 C51.093424,84.6281284 50.5564161,85 49.8953033,85 C49.2345807,85 48.6971826,84.6281284 48.6971826,84.1676038 C48.6971826,83.7066869 49.2345807,83.3332462 49.8953033,83.3332462 C50.5564161,83.3332462 51.093424,83.7059024 51.093424,84.1687806 L51.093424,84.1676038 Z M55,83.5242815 C55,83.9848061 54.4629921,84.3566777 53.8018793,84.3566777 C53.1411567,84.3566777 52.6037586,83.9848061 52.6037586,83.5242815 C52.6037586,83.0633646 53.1411567,82.6899239 53.8018793,82.6899239 C54.4629921,82.6899239 55,83.0625801 55,83.5254583 L55,83.5242815 Z" id="octo" fill="#C3E4D8"></path>
                    <path d="M27.0002011,73 L26.0237544,77.2089435 C26.0237544,77.2089435 25.7689738,78.7301202 26.9282256,79 C28.1384336,78.9708451 28.0384322,77.5710158 27.954673,77.116357 L27.0002011,73 Z" id="drop" fill="#9CDAF1"></path>
                </g>
            </g>
        </g>
    </g>
</svg>