<?xml version="1.0" standalone="no"?>
<!DOCTYPE svg PUBLIC "-//W3C//DTD SVG 20010904//EN"
 "http://www.w3.org/TR/2001/REC-SVG-20010904/DTD/svg10.dtd">
<svg version="1.0" xmlns="http://www.w3.org/2000/svg"
 width="16.000000pt" height="16.000000pt" viewBox="0 0 16.000000 16.000000"
 preserveAspectRatio="xMidYMid meet">
<metadata>
Created by potrace 1.11, written by Peter Selinger 2001-2013
</metadata>
<g transform="translate(0.000000,16.000000) scale(0.008000,-0.008000)"
fill="#000000" stroke="none">
<path d="M1155 1848 c-207 -121 -225 -132 -915 -529 -74 -43 -143 -84 -153
-91 -16 -12 6 -27 200 -138 120 -68 258 -148 306 -176 l88 -51 -213 -123
c-337 -194 -388 -224 -388 -230 0 -3 28 -22 62 -42 35 -20 170 -97 300 -173
l237 -137 138 79 c76 44 213 123 305 176 92 54 170 97 172 97 3 0 74 -40 158
-89 351 -204 451 -261 454 -261 2 0 4 157 4 350 l0 350 -22 14 c-13 7 -150 87
-305 176 l-283 163 0 353 c0 277 -3 354 -12 354 -7 -1 -67 -33 -133 -72z"/>
</g>
</svg>
