<?xml version="1.0" encoding="UTF-8"?>
<svg width="140px" height="140px" viewBox="0 0 140 140" version="1.1" xmlns="http://www.w3.org/2000/svg" xmlns:xlink="http://www.w3.org/1999/xlink">
    <!-- Generator: Sketch 47.1 (45422) - http://www.bohemiancoding.com/sketch -->
    <title>slack-140</title>
    <desc>Created with Sketch.</desc>
    <defs></defs>
    <g id="Page-1" stroke="none" stroke-width="1" fill="none" fill-rule="evenodd">
        <g id="slack-140">
            <g>
                <rect id="Rectangle-18" x="0" y="0" width="140" height="140"></rect>
                <g id="slack-logo" transform="translate(13.000000, 24.000000)">
                    <g id="text" transform="translate(0.000000, 57.000000)" fill-rule="nonzero" fill="#202532">
                        <path d="M20.1733929,13.5954536 C21.6873934,14.2595993 21.8069198,14.728408 20.6116562,16.9552496 C19.3765505,19.2211585 19.0976557,19.3774281 17.5836552,18.7914171 C15.7110756,18.0100692 13.2807063,17.4240583 11.7268637,17.4240583 C9.17696807,17.4240583 7.50359907,18.3226084 7.50359907,19.6899672 C7.50359907,24.1827177 22.0858146,21.7605392 22.0858146,31.2929836 C22.0858146,36.0982733 17.86255,39.3017997 11.5674952,39.3017997 C8.26059933,39.3017997 4.15686108,38.2079126 1.32807063,36.8014864 C-0.0664035316,36.0982733 -0.185929888,35.7075993 1.0491758,33.402623 C2.08507089,31.4101858 2.44364996,31.1757815 3.95765048,31.8008598 C6.34817762,32.8166121 9.41602078,33.6370274 11.4479688,33.6370274 C13.7588117,33.6370274 15.3126544,32.6994099 15.3126544,31.3711184 C15.3126544,27.0346376 0.451544015,29.1052095 0.451544015,19.8462368 C0.451544015,14.923745 4.63496651,11.6420838 10.8901792,11.6420838 C13.9181802,11.6030164 17.6234973,12.4624991 20.1733929,13.5954536 Z" id="Shape"></path>
                        <path d="M31.9666601,2.26590893 L31.9666601,37.8953735 C31.9666601,38.442317 31.3690283,38.9892605 30.572186,38.9892605 L26.7473425,38.9892605 C25.910658,38.9892605 25.3528684,38.4032496 25.3528684,37.8953735 L25.3528684,2.26590893 C25.3528684,0.507876139 25.8708159,0.351606558 28.6597642,0.351606558 C31.8471338,0.312539163 31.9666601,0.546943534 31.9666601,2.26590893 Z" id="Shape"></path>
                        <path d="M59.1389852,22.2684153 L59.1389852,37.6219017 C59.1389852,38.442317 58.5413535,38.9892605 57.7445111,38.9892605 L53.9595098,38.9892605 C53.0829832,38.9892605 52.4853514,38.3641822 52.5650356,37.5046995 L52.6048777,35.8638689 C50.5729297,38.0907104 47.6246129,39.2627323 44.6762961,39.2627323 C38.9788731,39.2627323 35.1540296,36.0201385 35.1540296,31.2148489 C35.1540296,26.0970201 39.4569785,22.6200219 45.9512439,22.6200219 C48.4214552,22.6200219 50.6526139,23.0497632 52.4853514,23.7920437 L52.4853514,22.034011 C52.4853514,19.2211585 50.2143506,17.5412605 46.3496651,17.5412605 C44.5567697,17.5412605 42.325611,18.2444736 40.5725578,19.2602259 C39.2179258,20.0025064 38.8991888,19.963439 37.4250304,17.8147323 C35.9907141,15.6660255 36.0305562,15.2753516 37.4250304,14.3768015 C40.0944524,12.6969035 43.6802431,11.6030164 46.987139,11.6030164 C54.4376152,11.6030164 59.1389852,15.5488233 59.1389852,22.2684153 Z M41.5287687,31.1757815 C41.5287687,33.011949 43.1224534,34.2230383 45.4731384,34.2230383 C48.341771,34.2230383 50.9713509,32.8556795 52.4853514,30.5507031 L52.4853514,28.167592 C50.9713509,27.5815811 49.0987713,27.2690419 47.4652444,27.2690419 C43.8794537,27.2690419 41.5287687,28.9098725 41.5287687,31.1757815 Z" id="Shape"></path>
                        <path d="M85.0363626,13.634521 C86.4308367,14.4158689 86.4706789,14.8456102 84.9566783,17.1505865 C83.5223621,19.3383607 83.2833093,19.4555629 81.7294667,18.7132824 C80.5740453,18.1272714 78.7014657,17.6193953 77.1874651,17.6193953 C72.4064109,17.6193953 69.2190413,20.7057195 69.2190413,25.393807 C69.2190413,30.238164 72.4064109,33.5198252 77.1874651,33.5198252 C78.8608341,33.5198252 80.9326243,32.8947469 82.2872564,32.1524663 C83.6817305,31.3711184 83.9606254,31.4101858 85.4347838,33.5198252 C86.7495737,35.4731949 86.7495737,35.9420037 85.5543101,36.762419 C83.4028357,38.2079126 80.0560977,39.3017997 77.0679388,39.3017997 C68.2229884,39.3017997 62.2865126,33.7542296 62.2865126,25.393807 C62.2865126,17.1115191 68.2229884,11.6030164 77.147623,11.6030164 C79.8568871,11.6030164 83.0442566,12.5015665 85.0363626,13.634521 Z" id="Shape"></path>
                        <path d="M113.961741,35.6294645 C115.07732,36.9968234 114.639057,37.5046995 111.850109,38.4813844 C109.021318,39.4971367 108.622897,39.4190019 107.626844,38.1688452 L99.6982624,27.8159855 L96.1523138,31.1757815 L96.1523138,37.8953735 C96.1523138,38.442317 95.554682,38.9892605 94.7578396,38.9892605 L90.9329962,38.9892605 C90.0963117,38.9892605 89.538522,38.4032496 89.538522,37.8953735 L89.538522,2.26590893 C89.538522,0.507876139 90.0564696,0.351606558 92.8454179,0.351606558 C96.0726295,0.351606558 96.1523138,0.58601093 96.1523138,2.26590893 L96.1523138,22.5028197 L106.98937,12.3062295 C108.184634,11.2123425 108.86195,11.2904772 110.973582,12.6578361 C113.324267,14.1423971 113.483636,14.5721385 112.368056,15.6269581 L104.319948,23.3623024 L113.961741,35.6294645 Z" id="Shape"></path>
                    </g>
                    <g id="pound-color" transform="translate(32.000000, 0.114931)">
                        <rect id="Rectangle-4" fill="#89D3DF" transform="translate(23.154587, 17.395910) rotate(-18.000000) translate(-23.154587, -17.395910) " x="0.886839676" y="12.9599785" width="44.5354948" height="8.87186208" rx="4.43593104"></rect>
                        <rect id="Rectangle-4" fill="#E01A59" transform="translate(28.637699, 34.271194) rotate(-18.000000) translate(-28.637699, -34.271194) " x="6.36995199" y="29.835263" width="44.5354948" height="8.87186208" rx="4.43593104"></rect>
                        <rect id="Rectangle-5" fill="#63C1A0" transform="translate(17.424989, 28.585997) rotate(-18.000000) translate(-17.424989, -28.585997) " x="12.9714392" y="6.40634151" width="8.90709896" height="44.3593104" rx="4.45354948"></rect>
                        <rect id="Rectangle-5" fill="#ECB32D" transform="translate(34.367298, 23.081107) rotate(-18.000000) translate(-34.367298, -23.081107) " x="29.9137483" y="0.901451614" width="8.90709896" height="44.3593104" rx="4.45354948"></rect>
                        <rect id="Rectangle-7" fill="#AB184D" transform="translate(20.166545, 37.023639) rotate(-18.000000) translate(-20.166545, -37.023639) " x="15.7129954" y="32.5877079" width="8.90709896" height="8.87186208"></rect>
                        <rect id="Rectangle-8" fill="#399989" transform="translate(14.683433, 20.148354) rotate(-18.000000) translate(-14.683433, -20.148354) " x="10.2298831" y="15.7124234" width="8.90709896" height="8.87186208"></rect>
                        <rect id="Rectangle-9" fill="#819C3C" transform="translate(31.625742, 14.643465) rotate(-18.000000) translate(-31.625742, -14.643465) " x="27.1721921" y="10.2075335" width="8.90709896" height="8.87186208"></rect>
                        <rect id="Rectangle-6" fill="#BD1E24" transform="translate(37.108854, 31.518749) rotate(-18.000000) translate(-37.108854, -31.518749) " x="32.6553044" y="27.082818" width="8.90709896" height="8.87186208"></rect>
                    </g>
                </g>
            </g>
        </g>
    </g>
</svg>