<?xml version="1.0" encoding="UTF-8"?>
<svg width="140px" height="140px" viewBox="0 0 140 140" version="1.1" xmlns="http://www.w3.org/2000/svg" xmlns:xlink="http://www.w3.org/1999/xlink">
    <!-- Generator: Sketch 47.1 (45422) - http://www.bohemiancoding.com/sketch -->
    <title>wiki-140</title>
    <desc>Created with Sketch.</desc>
    <defs>
        <path d="M2,0 L49,0 L68,17 L68,89 L68,89 C68,90.1045695 67.1045695,91 66,91 L2,91 L2,91 C0.8954305,91 1.3527075e-16,90.1045695 0,89 L0,2 L-2.22044605e-16,2 C-3.57315355e-16,0.8954305 0.8954305,2.02906125e-16 2,0 Z" id="path-1"></path>
        <path d="M57.7098661,2.53275019 L3.91407903,55.9219218 L0.207296715,70.1863184 L0.207296715,70.1863184 C0.137844358,70.4535841 0.298203799,70.7265481 0.565469549,70.7960004 C0.643307797,70.8162277 0.724876725,70.8173802 0.803255409,70.7993604 L14.6658701,67.6122351 L68.5871192,12.5945833 L68.5871192,12.5945833 C71.3498294,9.77569781 71.3042903,5.25092051 68.4854048,2.48821033 C68.4358834,2.43967573 68.3856582,2.39186442 68.3347452,2.34479159 L68.3347452,2.34479159 L68.3347452,2.34479159 C65.3142294,-0.447900086 60.629715,-0.365029044 57.7098661,2.53275019 Z" id="path-2"></path>
    </defs>
    <g id="Page-1" stroke="none" stroke-width="1" fill="none" fill-rule="evenodd">
        <g id="wiki-140">
            <g>
                <rect id="Rectangle-18" x="0" y="0" width="140" height="140"></rect>
                <g id="wiki-logo" transform="translate(25.000000, 23.000000)">
                    <g id="Rectangle-10">
                        <use fill="#FFFFFF" fill-rule="evenodd" xlink:href="#path-1"></use>
                        <path stroke="#1AC5FF" stroke-width="4" d="M66,17.8942208 L48.2358709,2 L2,2 L2,89 L66,89 L66,17.8942208 Z"></path>
                    </g>
                    <rect id="Rectangle-13" fill="#5CCAFF" x="14" y="33" width="40" height="6" rx="1"></rect>
                    <rect id="Rectangle-13" fill="#5CCAFF" x="14" y="50" width="34" height="6" rx="1"></rect>
                    <rect id="Rectangle-13" fill="#5CCAFF" x="14" y="68" width="22" height="6" rx="1"></rect>
                    <rect id="Rectangle-11" fill="#00C0FF" x="45" y="3" width="4" height="18"></rect>
                    <rect id="Rectangle-12" fill="#00C0FF" x="45" y="17" width="22" height="4"></rect>
                    <g id="Group-13" transform="translate(38.000000, 3.000000)">
                        <mask id="mask-3" fill="white">
                            <use xlink:href="#path-2"></use>
                        </mask>
                        <use id="Path-7" fill="#FDBD39" xlink:href="#path-2"></use>
                        <path d="M5.62874262,56.7007974 L50.6287426,11.7007974" id="Path-10" stroke="#FFCC00" stroke-width="4" stroke-linecap="round" mask="url(#mask-3)"></path>
                        <path d="M-2.21125366,71.9271156 L3.77204487,54.1556342 C3.91866948,57.9189168 5.17214918,60.9443785 7.53248399,63.2320191 C9.8928188,65.5196598 13.1295633,67.1754299 17.2427174,68.1993296 L-2.21125366,71.9271156 Z" id="Path-2" fill="#F9DBCE" mask="url(#mask-3)"></path>
                        <path d="M50.6582195,9.42507104 L57.9150269,2.23707832 L57.9150269,2.23707832 C60.8755514,-0.695372168 65.6167042,-0.787495198 68.6889091,2.02773627 L68.6889091,2.02773627 L68.6889091,2.02773627 C71.6613141,4.7515156 71.862865,9.36918538 69.1390857,12.3415904 C69.1074284,12.3761374 69.0754392,12.4103788 69.0431225,12.4443098 L62.7117661,19.0919399 L50.6582195,9.42507104 Z" id="Path-8" fill="#FF99A1" mask="url(#mask-3)"></path>
                        <polygon id="Path-9" fill="#DADDE2" mask="url(#mask-3)" points="48.35654 11.4146971 60.4568403 21.6967142 66.2291412 15.6424234 54.0540965 5.32345881"></polygon>
                        <circle id="Oval-3" fill="#5F6269" mask="url(#mask-3)" cx="1" cy="70" r="3"></circle>
                    </g>
                </g>
            </g>
        </g>
    </g>
</svg>